# xmcd
#
# Track frame offsets: 
#        150
#        14509
#        28972
#        41908
#        55812
#        65514
#        81674
#        106633
#        127223
#        139719
#        155279
#        172981
#        193686
#        209002
#
# Disc length: 2956 seconds
#
# Revision: 0
# Processed by: cddbd v1.5PL3 Copyright (c) Steve Scherf et al.
# Submitted via: ExactAudioCopy v0.95a3
#
DISCID=cf0b8a0e
DTITLE=Mönsterås Blues Band - 1974-1999 Bricks In My Pillow
DYEAR=1900
DGENRE=
TTITLE0=Bricks In My Pillow
TTITLE1=You Can Be Replaced
TTITLE2=Goodmorning Heartaches
TTITLE3=I'm Getting Tired
TTITLE4=Seipel Blues
TTITLE5='bout The Break Of Day
TTITLE6=Easy Baby
TTITLE7=Mixture
TTITLE8=Don't Want No Special Rider
TTITLE9=19 Years Old
TTITLE10=Lonely Man
TTITLE11=Just A Feeling
TTITLE12=Make My Dreams Come True
TTITLE13=Juke
EXTD=
EXTT0=
EXTT1=
EXTT2=
EXTT3=
EXTT4=
EXTT5=
EXTT6=
EXTT7=
EXTT8=
EXTT9=
EXTT10=
EXTT11=
EXTT12=
EXTT13=
PLAYORDER=
